<?xml version="1.0" standalone="no"?>
<!DOCTYPE svg PUBLIC "-//W3C//DTD SVG 20010904//EN"
 "http://www.w3.org/TR/2001/REC-SVG-20010904/DTD/svg10.dtd">
<svg version="1.0" xmlns="http://www.w3.org/2000/svg"
 width="50.000000pt" height="50.000000pt" viewBox="0 0 50.000000 50.000000"
 preserveAspectRatio="xMidYMid meet">

<g transform="translate(0.000000,50.000000) scale(0.100000,-0.100000)"
fill="#000000" stroke="none">
<path d="M0 430 l0 -70 70 0 70 0 0 70 0 70 -70 0 -70 0 0 -70z m110 23 c0 -4
-10 -17 -21 -29 -17 -18 -26 -21 -40 -13 -25 13 -25 32 0 24 10 -3 24 1 31 10
13 15 30 20 30 8z"/>
<path d="M200 430 c0 -6 57 -10 150 -10 93 0 150 4 150 10 0 6 -57 10 -150 10
-93 0 -150 -4 -150 -10z"/>
<path d="M0 250 l0 -70 70 0 70 0 0 70 0 70 -70 0 -70 0 0 -70z m110 23 c0 -4
-10 -17 -21 -29 -17 -18 -26 -21 -40 -13 -25 13 -25 32 0 24 10 -3 24 1 31 10
13 15 30 20 30 8z"/>
<path d="M200 250 c0 -6 57 -10 150 -10 93 0 150 4 150 10 0 6 -57 10 -150 10
-93 0 -150 -4 -150 -10z"/>
<path d="M0 70 l0 -70 70 0 70 0 0 70 0 70 -70 0 -70 0 0 -70z"/>
<path d="M200 70 c0 -6 57 -10 150 -10 93 0 150 4 150 10 0 6 -57 10 -150 10
-93 0 -150 -4 -150 -10z"/>
</g>
</svg>
